<svg width="202" height="202" viewBox="0 0 202 202" fill="none" xmlns="http://www.w3.org/2000/svg">
<g id="Group">
<path id="Vector" d="M103.061 0H98.4556V11.5142H103.061V0Z" fill="#FF5722"/>
<path id="Vector_2" d="M103.061 0H98.4556V11.5142H103.061V0Z" fill="#FF5722"/>
<path id="Vector_3" d="M103.061 190.001H98.4556V201.516H103.061V190.001Z" fill="#FF5722"/>
<path id="Vector_4" d="M11.5147 98.4551H0.000488281V103.061H11.5147V98.4551Z" fill="#FF5722"/>
<path id="Vector_5" d="M11.5147 98.4551H0.000488281V103.061H11.5147V98.4551Z" fill="#FF5722"/>
<path id="Vector_6" d="M201.516 98.4551H190.001V103.061H201.516V98.4551Z" fill="#FF5722"/>
<path id="Vector_7" d="M31.1544 27.8827L27.8977 31.1394L36.0394 39.2811L39.2961 36.0244L31.1544 27.8827Z" fill="#FF5722"/>
<path id="Vector_8" d="M31.1544 27.8827L27.8977 31.1394L36.0394 39.2811L39.2961 36.0244L31.1544 27.8827Z" fill="#FF5722"/>
<path id="Vector_9" d="M165.487 162.244L162.231 165.501L170.372 173.643L173.629 170.386L165.487 162.244Z" fill="#FF5722"/>
<path id="Vector_10" d="M36.0292 162.228L27.8889 170.372L31.1462 173.628L39.2865 165.485L36.0292 162.228Z" fill="#FF5722"/>
<path id="Vector_11" d="M36.0292 162.228L27.8889 170.372L31.1462 173.628L39.2865 165.485L36.0292 162.228Z" fill="#FF5722"/>
<path id="Vector_12" d="M170.375 27.8778L162.235 36.021L165.492 39.2771L173.633 31.134L170.375 27.8778Z" fill="#FF5722"/>
<path id="Vector_13" d="M80.0434 2.12837L75.5588 3.17773L78.1822 14.3891L82.6668 13.3397L80.0434 2.12837Z" fill="#FF5722"/>
<path id="Vector_14" d="M80.0434 2.12837L75.5588 3.17773L78.1822 14.3891L82.6668 13.3397L80.0434 2.12837Z" fill="#FF5722"/>
<path id="Vector_15" d="M123.341 187.139L118.856 188.188L121.48 199.399L125.964 198.35L123.341 187.139Z" fill="#FF5722"/>
<path id="Vector_16" d="M13.3474 118.848L2.13696 121.476L3.18789 125.96L14.3983 123.332L13.3474 118.848Z" fill="#FF5722"/>
<path id="Vector_17" d="M13.3474 118.848L2.13696 121.476L3.18789 125.96L14.3983 123.332L13.3474 118.848Z" fill="#FF5722"/>
<path id="Vector_18" d="M198.345 75.5663L187.134 78.1917L188.184 82.676L199.395 80.0506L198.345 75.5663Z" fill="#FF5722"/>
<path id="Vector_19" d="M16.3727 45.6651L13.9443 49.5786L23.728 55.6495L26.1564 51.736L16.3727 45.6651Z" fill="#FF5722"/>
<path id="Vector_20" d="M16.3727 45.6651L13.9443 49.5786L23.728 55.6495L26.1564 51.736L16.3727 45.6651Z" fill="#FF5722"/>
<path id="Vector_21" d="M177.798 145.852L175.369 149.765L185.153 155.836L187.581 151.923L177.798 145.852Z" fill="#FF5722"/>
<path id="Vector_22" d="M51.7552 175.359L45.6826 185.142L49.5957 187.571L55.6682 177.788L51.7552 175.359Z" fill="#FF5722"/>
<path id="Vector_23" d="M51.7552 175.359L45.6826 185.142L49.5957 187.571L55.6682 177.788L51.7552 175.359Z" fill="#FF5722"/>
<path id="Vector_24" d="M151.921 13.9278L145.849 23.7104L149.762 26.1395L155.834 16.3569L151.921 13.9278Z" fill="#FF5722"/>
<path id="Vector_25" d="M65.7366 6.24221L61.4558 7.94141L65.7038 18.6433L69.9846 16.9441L65.7366 6.24221Z" fill="#FF5722"/>
<path id="Vector_26" d="M65.7366 6.24221L61.4558 7.94141L65.7038 18.6433L69.9846 16.9441L65.7366 6.24221Z" fill="#FF5722"/>
<path id="Vector_27" d="M135.817 182.855L131.536 184.554L135.784 195.256L140.065 193.557L135.817 182.855Z" fill="#FF5722"/>
<path id="Vector_28" d="M16.956 131.525L6.25415 135.773L7.95334 140.054L18.6552 135.806L16.956 131.525Z" fill="#FF5722"/>
<path id="Vector_29" d="M16.956 131.525L6.25415 135.773L7.95334 140.054L18.6552 135.806L16.956 131.525Z" fill="#FF5722"/>
<path id="Vector_30" d="M193.569 61.4442L182.867 65.6921L184.566 69.9729L195.268 65.7249L193.569 61.4442Z" fill="#FF5722"/>
<path id="Vector_31" d="M9.17628 58.6984L7.3501 62.9265L17.9205 67.492L19.7466 63.2638L9.17628 58.6984Z" fill="#FF5722"/>
<path id="Vector_32" d="M9.17628 58.6984L7.3501 62.9265L17.9205 67.492L19.7466 63.2638L9.17628 58.6984Z" fill="#FF5722"/>
<path id="Vector_33" d="M183.623 134.038L181.797 138.266L192.367 142.832L194.193 138.604L183.623 134.038Z" fill="#FF5722"/>
<path id="Vector_34" d="M63.2819 181.792L58.7183 192.363L62.9467 194.189L67.5103 183.618L63.2819 181.792Z" fill="#FF5722"/>
<path id="Vector_35" d="M63.2819 181.792L58.7183 192.363L62.9467 194.189L67.5103 183.618L63.2819 181.792Z" fill="#FF5722"/>
<path id="Vector_36" d="M138.581 7.34412L134.018 17.9153L138.246 19.7407L142.81 9.16956L138.581 7.34412Z" fill="#FF5722"/>
<path id="Vector_37" d="M45.1243 16.7269L41.3433 19.3567L47.9179 28.8092L51.6989 26.1794L45.1243 16.7269Z" fill="#FF5722"/>
<path id="Vector_38" d="M45.1243 16.7269L41.3433 19.3567L47.9179 28.8092L51.6989 26.1794L45.1243 16.7269Z" fill="#FF5722"/>
<path id="Vector_39" d="M153.615 172.698L149.833 175.328L156.408 184.78L160.189 182.15L153.615 172.698Z" fill="#FF5722"/>
<path id="Vector_40" d="M26.1855 149.818L16.7329 156.392L19.3628 160.173L28.8153 153.599L26.1855 149.818Z" fill="#FF5722"/>
<path id="Vector_41" d="M26.1855 149.818L16.7329 156.392L19.3628 160.173L28.8153 153.599L26.1855 149.818Z" fill="#FF5722"/>
<path id="Vector_42" d="M182.17 41.3512L172.717 47.9258L175.347 51.7068L184.8 45.1322L182.17 41.3512Z" fill="#FF5722"/>
<path id="Vector_43" d="M1.99272 80.6766L1.17871 85.2097L12.5116 87.2447L13.3256 82.7116L1.99272 80.6766Z" fill="#FF5722"/>
<path id="Vector_44" d="M1.99272 80.6766L1.17871 85.2097L12.5116 87.2447L13.3256 82.7116L1.99272 80.6766Z" fill="#FF5722"/>
<path id="Vector_45" d="M189.018 114.268L188.204 118.801L199.537 120.836L200.351 116.303L189.018 114.268Z" fill="#FF5722"/>
<path id="Vector_46" d="M82.7313 188.187L80.6982 199.52L85.2315 200.333L87.2646 189L82.7313 188.187Z" fill="#FF5722"/>
<path id="Vector_47" d="M82.7313 188.187L80.6982 199.52L85.2315 200.333L87.2646 189L82.7313 188.187Z" fill="#FF5722"/>
<path id="Vector_48" d="M116.294 1.17163L114.261 12.5049L118.794 13.3181L120.827 1.98485L116.294 1.17163Z" fill="#FF5722"/>
</g>
</svg>
