<svg width="11" height="48" viewBox="0 0 11 48" fill="none" xmlns="http://www.w3.org/2000/svg">
<g id="Group">
<g id="Group_2">
<path id="Vector" d="M2.18752 0.363985L-0.0905762 2.64526L8.64598 11.3696L10.9241 9.08835L2.18752 0.363985Z" fill="#FACD49"/>
<path id="Vector_2" d="M-0.0962203 9.10838L2.18506 11.3865L10.9094 2.64992L8.62815 0.371821L-0.0962203 9.10838Z" fill="#FACD49"/>
</g>
<g id="Group_3">
<path id="Vector_3" d="M2.21804 23.4458L-0.0600586 25.7271L8.67649 34.4514L10.9546 32.1701L2.21804 23.4458Z" fill="#FACD49"/>
<path id="Vector_4" d="M-0.0779097 32.1775L2.20337 34.4556L10.9277 25.719L8.64645 23.4409L-0.0779097 32.1775Z" fill="#FACD49"/>
</g>
<g id="Group_4">
<path id="Vector_5" d="M2.22927 44.905L-0.0488281 47.1863L8.68772 55.9106L10.9658 53.6294L2.22927 44.905Z" fill="#FACD49"/>
<path id="Vector_6" d="M-0.0527632 53.6719L2.22852 55.95L10.9529 47.2134L8.6716 44.9353L-0.0527632 53.6719Z" fill="#FACD49"/>
</g>
</g>
</svg>
